<svg version="1.1" id="Layer_1" xmlns="http://www.w3.org/2000/svg" xmlns:xlink="http://www.w3.org/1999/xlink" x="0px" y="0px"
	 width="100%" viewBox="0 0 2732 2731" enable-background="new 0 0 2732 2731" xml:space="preserve">
<path fill="#FFFFFF" opacity="1.000000" stroke="none" 
	d="
M1888.000000,2734.000000 
	C1258.666626,2734.000000 630.333313,2734.000000 2.000000,2734.000000 
	C2.000000,1823.333374 2.000000,912.666687 2.000000,2.000000 
	C912.666687,2.000000 1823.333374,2.000000 2734.000000,2.000000 
	C2734.000000,912.666687 2734.000000,1823.333374 2734.000000,2734.000000 
	C2452.333252,2734.000000 2170.666748,2734.000000 1888.000000,2734.000000 
M1794.462158,1348.669312 
	C1805.190796,1320.049683 1816.450806,1291.615601 1826.526489,1262.767944 
	C1842.522827,1216.968628 1858.268311,1171.066650 1873.109863,1124.883545 
	C1886.822876,1082.212036 1899.244873,1039.124756 1912.166748,996.199951 
	C1922.024292,963.454468 1931.789307,930.681091 1941.556763,897.908630 
	C1943.073364,892.819885 1944.721191,887.730957 1945.667969,882.525696 
	C1946.293823,879.084229 1947.128174,874.823792 1942.877930,872.786743 
	C1938.989868,870.923218 1935.738770,872.811584 1933.206421,875.830811 
	C1931.079346,878.367004 1928.986938,880.969360 1927.203247,883.750366 
	C1913.028442,905.849243 1898.696899,927.852661 1884.869995,950.168213 
	C1868.068726,977.283997 1851.367188,1004.473572 1835.257080,1032.002441 
	C1817.630615,1062.122681 1800.064819,1092.314209 1783.703003,1123.127930 
	C1768.273193,1152.186646 1753.830200,1181.812378 1740.060791,1211.698975 
	C1721.969238,1250.966919 1707.349731,1291.650391 1693.633911,1332.638062 
	C1691.963867,1337.628418 1690.864014,1342.809448 1687.814331,1347.963989 
	C1674.672363,1349.625610 1661.360840,1350.467041 1648.427490,1353.138550 
	C1628.323853,1357.291382 1608.445068,1362.561646 1588.528442,1367.585693 
	C1545.595703,1378.415771 1507.795410,1399.766357 1472.057007,1425.132324 
	C1454.987915,1437.247681 1439.066406,1450.759155 1423.439209,1464.760010 
	C1406.517090,1479.921265 1390.402832,1495.794678 1376.605835,1513.667358 
	C1364.466919,1529.391846 1353.449463,1546.149414 1343.479736,1563.345215 
	C1324.575439,1595.951172 1311.569214,1630.315796 1313.553955,1669.232788 
	C1314.359985,1685.034668 1315.598511,1700.509399 1321.631470,1715.040283 
	C1327.474976,1729.114502 1334.552734,1742.687500 1341.334961,1756.358154 
	C1352.133179,1778.123779 1367.273560,1796.150391 1386.273438,1811.525391 
	C1412.820679,1833.007446 1442.063232,1848.719116 1475.047607,1857.285034 
	C1501.723633,1864.212891 1528.748657,1869.169067 1556.417358,1870.031860 
	C1577.739868,1870.696899 1599.005005,1869.714233 1619.897339,1865.669556 
	C1637.449341,1862.271484 1654.951782,1858.045166 1671.966309,1852.594360 
	C1690.947754,1846.513550 1709.099243,1838.178101 1726.341309,1827.897827 
	C1752.552856,1812.269653 1776.259766,1793.790039 1795.003540,1769.499268 
	C1809.918823,1750.170166 1821.987671,1729.119873 1830.646118,1706.286865 
	C1842.427002,1675.220093 1849.555542,1643.514160 1844.163818,1609.855713 
	C1840.467407,1586.780762 1831.157104,1566.926758 1815.109863,1549.933838 
	C1800.234863,1534.182129 1781.075439,1525.742432 1761.643433,1517.903809 
	C1754.057861,1514.843872 1745.638672,1513.850464 1737.727783,1510.306274 
	C1738.556152,1506.776001 1739.540771,1503.273804 1740.183960,1499.710083 
	C1742.119263,1488.988281 1748.858276,1479.532959 1749.989624,1468.203979 
	C1774.700806,1473.529541 1799.278442,1479.509888 1822.202271,1490.401855 
	C1842.043579,1499.829102 1861.236084,1510.654663 1877.086914,1526.186279 
	C1887.527100,1536.416138 1897.732178,1547.006836 1906.959595,1558.319336 
	C1916.386841,1569.876831 1926.005981,1581.720215 1932.873779,1594.835083 
	C1949.454346,1626.497437 1956.007080,1661.109985 1957.859375,1696.524902 
	C1959.093384,1720.117432 1956.489868,1743.477905 1952.562256,1766.855103 
	C1946.668945,1801.932251 1933.630249,1833.848999 1914.302124,1863.423950 
	C1889.572998,1901.263550 1859.333008,1934.325073 1825.094116,1963.587769 
	C1799.360718,1985.580933 1772.598755,2006.410034 1743.667603,2024.164429 
	C1725.538452,2035.289917 1707.389526,2046.461792 1688.648315,2056.489258 
	C1669.643188,2066.658203 1650.090820,2075.870850 1630.433594,2084.738770 
	C1600.421387,2098.278076 1569.855713,2110.437744 1537.470337,2117.265625 
	C1514.733887,2122.059326 1491.792725,2125.533203 1468.530762,2125.931641 
	C1438.623047,2126.444336 1408.708008,2126.851318 1378.983398,2122.202881 
	C1362.301147,2119.594727 1345.365234,2118.377197 1328.839600,2115.058838 
	C1308.046509,2110.883301 1287.415039,2105.709473 1266.966064,2100.054688 
	C1231.661499,2090.291504 1197.274414,2077.778564 1164.198364,2062.014160 
	C1127.805908,2044.669067 1093.738892,2023.338379 1060.533447,2000.497681 
	C1022.336792,1974.223267 986.906372,1944.849609 954.384705,1911.757080 
	C932.623779,1889.614380 913.173584,1865.697266 895.578674,1840.280640 
	C874.906616,1810.419189 857.312866,1778.786987 842.486145,1745.541504 
	C827.821167,1712.658936 815.020508,1679.107544 806.255371,1644.252808 
	C797.368408,1608.913818 789.853149,1573.205322 787.822144,1536.616699 
	C786.701172,1516.422241 784.935181,1496.255859 784.224609,1476.049927 
	C783.876709,1466.155518 785.817078,1456.196899 785.768860,1446.271973 
	C785.668640,1425.638184 787.059753,1405.156738 789.834778,1384.721191 
	C792.196533,1367.328857 793.368835,1349.743164 796.429993,1332.484741 
	C802.099365,1300.520996 807.534790,1268.521851 815.904236,1237.048218 
	C829.536682,1185.782837 847.213196,1136.003662 871.015930,1088.695801 
	C885.184875,1060.534912 901.816040,1033.540771 918.458984,1006.716187 
	C936.151550,978.200012 955.938721,951.057800 977.679626,925.433289 
	C990.996216,909.738098 1004.018066,893.717163 1018.313049,878.946411 
	C1037.282837,859.345276 1057.172974,840.616821 1077.044312,821.913269 
	C1088.403198,811.221802 1100.004761,800.663452 1112.383057,791.204712 
	C1139.567383,770.431885 1167.150269,750.204285 1196.363892,732.241943 
	C1230.970337,710.963684 1266.274048,691.141724 1303.206665,674.093201 
	C1341.953125,656.207458 1381.639038,641.039551 1422.713501,629.600708 
	C1440.918457,624.530762 1459.273438,619.697937 1477.845459,616.328857 
	C1498.671631,612.551025 1519.781250,610.194092 1540.840942,607.890747 
	C1557.297485,606.090942 1573.852905,605.046753 1590.392212,604.232910 
	C1596.273926,603.943481 1602.241455,605.877930 1608.163452,605.838684 
	C1630.146362,605.693298 1651.862671,607.999207 1673.472046,611.816162 
	C1714.998657,619.151245 1756.157837,627.798157 1796.008179,642.071655 
	C1830.677490,654.489319 1862.978394,671.502808 1894.095581,690.891602 
	C1918.110840,705.855286 1939.663452,724.113770 1961.544189,741.982544 
	C1985.030396,761.162292 2007.504517,781.355835 2028.312622,803.362366 
	C2036.040161,811.535095 2042.926147,820.387146 2047.033813,831.309937 
	C2050.403809,840.271667 2055.312744,848.663879 2059.677979,857.238098 
	C2061.477539,860.773132 2063.390625,864.496033 2068.857178,863.308594 
	C2078.096436,840.515198 2080.071289,817.269165 2074.749268,793.171692 
	C2068.829102,766.365295 2055.741943,742.957214 2041.253296,720.184326 
	C2021.247437,688.739319 1998.525757,659.342529 1974.290283,631.026489 
	C1955.829712,609.457642 1935.647095,589.661743 1913.920044,571.583313 
	C1895.545044,556.293945 1875.838135,542.651184 1854.701050,531.188965 
	C1817.506958,511.019165 1780.150757,491.189178 1739.165649,479.645844 
	C1714.544800,472.711395 1689.672729,467.368256 1663.726562,467.855072 
	C1630.740723,468.473969 1597.713623,468.740112 1564.743042,467.798523 
	C1531.647095,466.853302 1498.877319,469.580078 1466.782715,476.632446 
	C1426.301758,485.527649 1386.122437,496.015350 1346.225830,507.278748 
	C1315.198730,516.038208 1285.321655,528.321106 1255.587646,540.938538 
	C1216.265015,557.624817 1178.641602,577.557434 1142.210327,599.573608 
	C1115.506592,615.711304 1090.007202,633.908264 1064.474365,651.901672 
	C1028.553589,677.215637 995.572388,706.125305 964.344666,736.989624 
	C950.864807,750.312622 938.072021,764.335510 925.099792,778.164917 
	C920.333008,783.246704 915.700500,788.494812 911.434143,793.998352 
	C894.354980,816.030762 877.338928,838.113831 860.493164,860.325012 
	C830.252502,900.197388 805.293518,943.358643 782.241394,987.637634 
	C762.715393,1025.143433 744.847961,1063.460083 731.279480,1103.566772 
	C720.315063,1135.976074 708.953064,1168.352295 700.245911,1201.396240 
	C690.796753,1237.256104 683.988525,1273.824829 676.499878,1310.181396 
	C673.697571,1323.786499 671.801086,1337.617554 670.250977,1351.430786 
	C668.366577,1368.222534 667.072327,1385.089600 665.908264,1401.950684 
	C664.422852,1423.467285 662.809631,1444.997070 662.240967,1466.547241 
	C661.874023,1480.453247 663.735840,1494.404419 663.789062,1508.338379 
	C663.869080,1529.298950 664.813171,1550.159424 667.999146,1570.890503 
	C670.462646,1586.920410 672.344910,1603.068726 675.556702,1618.947632 
	C679.827576,1640.062744 684.897644,1661.026733 690.054077,1681.949707 
	C700.357239,1723.755981 715.901855,1763.757935 734.588806,1802.384399 
	C749.211365,1832.609497 765.681763,1861.965332 782.000488,1891.335327 
	C790.705017,1907.001587 800.198059,1922.319702 810.461731,1937.007812 
	C825.101074,1957.957520 839.724365,1979.018188 857.995300,1997.140869 
	C879.237244,2018.210205 899.658936,2040.197754 921.951538,2060.089111 
	C941.718262,2077.726807 963.295898,2093.391846 984.545166,2109.298584 
	C1020.525391,2136.232178 1058.178833,2160.636963 1098.287720,2181.029785 
	C1118.408325,2191.259766 1138.725098,2201.144287 1159.265259,2210.499756 
	C1191.708374,2225.276367 1225.443115,2236.740479 1259.887573,2245.655029 
	C1283.908203,2251.872070 1308.523315,2255.817627 1332.911133,2260.582520 
	C1354.737793,2264.847412 1376.820801,2267.713867 1399.027344,2267.840088 
	C1434.569946,2268.042480 1470.156128,2269.582520 1505.585693,2264.176758 
	C1535.432861,2259.623047 1565.012695,2254.197510 1594.217773,2246.394775 
	C1633.216187,2235.975830 1670.861816,2221.895996 1707.396729,2205.024170 
	C1756.407959,2182.390381 1803.379761,2156.078613 1847.297852,2124.435547 
	C1872.137329,2106.538574 1895.869751,2087.333740 1918.200073,2066.478027 
	C1936.917114,2048.996826 1954.557983,2030.416382 1970.675903,2010.411621 
	C1986.781616,1990.422119 2001.628418,1969.523926 2013.337158,1946.755127 
	C2026.408691,1921.336670 2040.140381,1896.227539 2049.769043,1869.060791 
	C2058.787109,1843.615967 2066.007080,1817.764282 2071.875977,1791.496216 
	C2075.712402,1774.325195 2076.982422,1756.820312 2078.716064,1739.304688 
	C2081.460693,1711.575195 2080.106689,1684.044189 2077.256348,1656.722290 
	C2074.016113,1625.664185 2065.739014,1595.461792 2053.818848,1566.406494 
	C2041.647705,1536.739380 2026.638306,1508.622070 2007.684326,1482.750854 
	C1997.886597,1469.377441 1987.437988,1456.461426 1976.903076,1443.651489 
	C1958.786743,1421.622803 1937.994019,1402.730835 1912.091309,1390.051514 
	C1900.720459,1384.485474 1889.547485,1378.497070 1878.049072,1373.213135 
	C1851.293091,1360.918213 1823.159546,1353.425659 1794.462158,1348.669312 
z"/>
<path fill="#FFCACA" opacity="1.000000" stroke="none" 
	d="
M1737.599243,1511.915771 
	C1745.638672,1513.850464 1754.057861,1514.843872 1761.643433,1517.903809 
	C1781.075439,1525.742432 1800.234863,1534.182129 1815.109863,1549.933838 
	C1831.157104,1566.926758 1840.467407,1586.780762 1844.163818,1609.855713 
	C1849.555542,1643.514160 1842.427002,1675.220093 1830.646118,1706.286865 
	C1821.987671,1729.119873 1809.918823,1750.170166 1795.003540,1769.499268 
	C1776.259766,1793.790039 1752.552856,1812.269653 1726.341309,1827.897827 
	C1709.099243,1838.178101 1690.947754,1846.513550 1671.966309,1852.594360 
	C1654.951782,1858.045166 1637.449341,1862.271484 1619.897339,1865.669556 
	C1599.005005,1869.714233 1577.739868,1870.696899 1556.417358,1870.031860 
	C1528.748657,1869.169067 1501.723633,1864.212891 1475.047607,1857.285034 
	C1442.063232,1848.719116 1412.820679,1833.007446 1386.273438,1811.525391 
	C1367.273560,1796.150391 1352.133179,1778.123779 1341.334961,1756.358154 
	C1334.552734,1742.687500 1327.474976,1729.114502 1321.631470,1715.040283 
	C1315.598511,1700.509399 1314.359985,1685.034668 1313.553955,1669.232788 
	C1311.569214,1630.315796 1324.575439,1595.951172 1343.479736,1563.345215 
	C1353.449463,1546.149414 1364.466919,1529.391846 1376.605835,1513.667358 
	C1390.402832,1495.794678 1406.517090,1479.921265 1423.439209,1464.760010 
	C1439.066406,1450.759155 1454.987915,1437.247681 1472.057007,1425.132324 
	C1507.795410,1399.766357 1545.595703,1378.415771 1588.528442,1367.585693 
	C1608.445068,1362.561646 1628.323853,1357.291382 1648.427490,1353.138550 
	C1661.360840,1350.467041 1674.672363,1349.625610 1689.648193,1347.988281 
	C1725.629761,1348.683228 1759.777222,1349.353638 1793.924805,1350.024170 
	C1823.159546,1353.425659 1851.293091,1360.918213 1878.049072,1373.213135 
	C1889.547485,1378.497070 1900.720459,1384.485474 1912.091309,1390.051514 
	C1937.994019,1402.730835 1958.786743,1421.622803 1976.903076,1443.651489 
	C1987.437988,1456.461426 1997.886597,1469.377441 2007.684326,1482.750854 
	C2026.638306,1508.622070 2041.647705,1536.739380 2053.818848,1566.406494 
	C2065.739014,1595.461792 2074.016113,1625.664185 2077.256348,1656.722290 
	C2080.106689,1684.044189 2081.460693,1711.575195 2078.716064,1739.304688 
	C2076.982422,1756.820312 2075.712402,1774.325195 2071.875977,1791.496216 
	C2066.007080,1817.764282 2058.787109,1843.615967 2049.769043,1869.060791 
	C2040.140381,1896.227539 2026.408691,1921.336670 2013.337158,1946.755127 
	C2001.628418,1969.523926 1986.781616,1990.422119 1970.675903,2010.411621 
	C1954.557983,2030.416382 1936.917114,2048.996826 1918.200073,2066.478027 
	C1895.869751,2087.333740 1872.137329,2106.538574 1847.297852,2124.435547 
	C1803.379761,2156.078613 1756.407959,2182.390381 1707.396729,2205.024170 
	C1670.861816,2221.895996 1633.216187,2235.975830 1594.217773,2246.394775 
	C1565.012695,2254.197510 1535.432861,2259.623047 1505.585693,2264.176758 
	C1470.156128,2269.582520 1434.569946,2268.042480 1399.027344,2267.840088 
	C1376.820801,2267.713867 1354.737793,2264.847412 1332.911133,2260.582520 
	C1308.523315,2255.817627 1283.908203,2251.872070 1259.887573,2245.655029 
	C1225.443115,2236.740479 1191.708374,2225.276367 1159.265259,2210.499756 
	C1138.725098,2201.144287 1118.408325,2191.259766 1098.287720,2181.029785 
	C1058.178833,2160.636963 1020.525391,2136.232178 984.545166,2109.298584 
	C963.295898,2093.391846 941.718262,2077.726807 921.951538,2060.089111 
	C899.658936,2040.197754 879.237244,2018.210205 857.995300,1997.140869 
	C839.724365,1979.018188 825.101074,1957.957520 810.461731,1937.007812 
	C800.198059,1922.319702 790.705017,1907.001587 782.000488,1891.335327 
	C765.681763,1861.965332 749.211365,1832.609497 734.588806,1802.384399 
	C715.901855,1763.757935 700.357239,1723.755981 690.054077,1681.949707 
	C684.897644,1661.026733 679.827576,1640.062744 675.556702,1618.947632 
	C672.344910,1603.068726 670.462646,1586.920410 667.999146,1570.890503 
	C664.813171,1550.159424 663.869080,1529.298950 663.789062,1508.338379 
	C663.735840,1494.404419 661.874023,1480.453247 662.240967,1466.547241 
	C662.809631,1444.997070 664.422852,1423.467285 665.908264,1401.950684 
	C667.072327,1385.089600 668.366577,1368.222534 670.250977,1351.430786 
	C671.801086,1337.617554 673.697571,1323.786499 676.499878,1310.181396 
	C683.988525,1273.824829 690.796753,1237.256104 700.245911,1201.396240 
	C708.953064,1168.352295 720.315063,1135.976074 731.279480,1103.566772 
	C744.847961,1063.460083 762.715393,1025.143433 782.241394,987.637634 
	C805.293518,943.358643 830.252502,900.197388 860.493164,860.325012 
	C877.338928,838.113831 894.354980,816.030762 911.434143,793.998352 
	C915.700500,788.494812 920.333008,783.246704 925.099792,778.164917 
	C938.072021,764.335510 950.864807,750.312622 964.344666,736.989624 
	C995.572388,706.125305 1028.553589,677.215637 1064.474365,651.901672 
	C1090.007202,633.908264 1115.506592,615.711304 1142.210327,599.573608 
	C1178.641602,577.557434 1216.265015,557.624817 1255.587646,540.938538 
	C1285.321655,528.321106 1315.198730,516.038208 1346.225830,507.278748 
	C1386.122437,496.015350 1426.301758,485.527649 1466.782715,476.632446 
	C1498.877319,469.580078 1531.647095,466.853302 1564.743042,467.798523 
	C1597.713623,468.740112 1630.740723,468.473969 1663.726562,467.855072 
	C1689.672729,467.368256 1714.544800,472.711395 1739.165649,479.645844 
	C1780.150757,491.189178 1817.506958,511.019165 1854.701050,531.188965 
	C1875.838135,542.651184 1895.545044,556.293945 1913.920044,571.583313 
	C1935.647095,589.661743 1955.829712,609.457642 1974.290283,631.026489 
	C1998.525757,659.342529 2021.247437,688.739319 2041.253296,720.184326 
	C2055.741943,742.957214 2068.829102,766.365295 2074.749268,793.171692 
	C2080.071289,817.269165 2078.096436,840.515198 2068.857178,863.308594 
	C2063.390625,864.496033 2061.477539,860.773132 2059.677979,857.238098 
	C2055.312744,848.663879 2050.403809,840.271667 2047.033813,831.309937 
	C2042.926147,820.387146 2036.040161,811.535095 2028.312622,803.362366 
	C2007.504517,781.355835 1985.030396,761.162292 1961.544189,741.982544 
	C1939.663452,724.113770 1918.110840,705.855286 1894.095581,690.891602 
	C1862.978394,671.502808 1830.677490,654.489319 1796.008179,642.071655 
	C1756.157837,627.798157 1714.998657,619.151245 1673.472046,611.816162 
	C1651.862671,607.999207 1630.146362,605.693298 1608.163452,605.838684 
	C1602.241455,605.877930 1596.273926,603.943481 1590.392212,604.232910 
	C1573.852905,605.046753 1557.297485,606.090942 1540.840942,607.890747 
	C1519.781250,610.194092 1498.671631,612.551025 1477.845459,616.328857 
	C1459.273438,619.697937 1440.918457,624.530762 1422.713501,629.600708 
	C1381.639038,641.039551 1341.953125,656.207458 1303.206665,674.093201 
	C1266.274048,691.141724 1230.970337,710.963684 1196.363892,732.241943 
	C1167.150269,750.204285 1139.567383,770.431885 1112.383057,791.204712 
	C1100.004761,800.663452 1088.403198,811.221802 1077.044312,821.913269 
	C1057.172974,840.616821 1037.282837,859.345276 1018.313049,878.946411 
	C1004.018066,893.717163 990.996216,909.738098 977.679626,925.433289 
	C955.938721,951.057800 936.151550,978.200012 918.458984,1006.716187 
	C901.816040,1033.540771 885.184875,1060.534912 871.015930,1088.695801 
	C847.213196,1136.003662 829.536682,1185.782837 815.904236,1237.048218 
	C807.534790,1268.521851 802.099365,1300.520996 796.429993,1332.484741 
	C793.368835,1349.743164 792.196533,1367.328857 789.834778,1384.721191 
	C787.059753,1405.156738 785.668640,1425.638184 785.768860,1446.271973 
	C785.817078,1456.196899 783.876709,1466.155518 784.224609,1476.049927 
	C784.935181,1496.255859 786.701172,1516.422241 787.822144,1536.616699 
	C789.853149,1573.205322 797.368408,1608.913818 806.255371,1644.252808 
	C815.020508,1679.107544 827.821167,1712.658936 842.486145,1745.541504 
	C857.312866,1778.786987 874.906616,1810.419189 895.578674,1840.280640 
	C913.173584,1865.697266 932.623779,1889.614380 954.384705,1911.757080 
	C986.906372,1944.849609 1022.336792,1974.223267 1060.533447,2000.497681 
	C1093.738892,2023.338379 1127.805908,2044.669067 1164.198364,2062.014160 
	C1197.274414,2077.778564 1231.661499,2090.291504 1266.966064,2100.054688 
	C1287.415039,2105.709473 1308.046509,2110.883301 1328.839600,2115.058838 
	C1345.365234,2118.377197 1362.301147,2119.594727 1378.983398,2122.202881 
	C1408.708008,2126.851318 1438.623047,2126.444336 1468.530762,2125.931641 
	C1491.792725,2125.533203 1514.733887,2122.059326 1537.470337,2117.265625 
	C1569.855713,2110.437744 1600.421387,2098.278076 1630.433594,2084.738770 
	C1650.090820,2075.870850 1669.643188,2066.658203 1688.648315,2056.489258 
	C1707.389526,2046.461792 1725.538452,2035.289917 1743.667603,2024.164429 
	C1772.598755,2006.410034 1799.360718,1985.580933 1825.094116,1963.587769 
	C1859.333008,1934.325073 1889.572998,1901.263550 1914.302124,1863.423950 
	C1933.630249,1833.848999 1946.668945,1801.932251 1952.562256,1766.855103 
	C1956.489868,1743.477905 1959.093384,1720.117432 1957.859375,1696.524902 
	C1956.007080,1661.109985 1949.454346,1626.497437 1932.873779,1594.835083 
	C1926.005981,1581.720215 1916.386841,1569.876831 1906.959595,1558.319336 
	C1897.732178,1547.006836 1887.527100,1536.416138 1877.086914,1526.186279 
	C1861.236084,1510.654663 1842.043579,1499.829102 1822.202271,1490.401855 
	C1799.278442,1479.509888 1774.700806,1473.529541 1748.371338,1468.057007 
	C1733.135498,1465.952881 1719.570190,1463.005859 1705.887207,1462.280884 
	C1687.443726,1461.303711 1668.909424,1462.037964 1649.502441,1462.011597 
	C1640.745239,1463.117554 1632.829834,1463.898438 1625.066406,1465.443115 
	C1593.452026,1471.733643 1564.354858,1484.384399 1536.626343,1500.585815 
	C1505.510620,1518.766357 1476.885742,1540.161011 1451.431641,1565.689575 
	C1444.645386,1572.495850 1438.005859,1579.526367 1432.002808,1587.017822 
	C1422.474243,1598.908813 1413.098145,1610.975098 1404.532349,1623.562378 
	C1400.104736,1630.068848 1396.520752,1637.560303 1394.365967,1645.122559 
	C1388.836914,1664.527710 1392.453613,1683.454712 1400.832397,1701.262817 
	C1409.630737,1719.962524 1423.423218,1734.652832 1440.537109,1746.272583 
	C1453.355225,1754.975830 1467.642700,1760.039307 1482.343262,1764.468262 
	C1514.916748,1774.281372 1548.119385,1779.622559 1583.059570,1779.847900 
	C1599.638184,1780.941895 1615.144287,1779.175781 1630.288086,1775.636230 
	C1639.142212,1773.566772 1647.467041,1769.233032 1656.756958,1765.849609 
	C1698.935059,1749.110596 1734.732178,1724.904419 1760.938965,1687.981079 
	C1774.732300,1668.547607 1782.997314,1647.311401 1781.894287,1623.029663 
	C1781.312378,1610.221924 1776.357300,1600.188843 1765.015137,1593.389893 
	C1749.309204,1583.975464 1732.131470,1579.878784 1713.226318,1578.146851 
	C1684.323364,1576.054077 1658.447510,1583.757690 1633.615479,1595.518677 
	C1626.563721,1598.858521 1620.341797,1603.949951 1613.065918,1608.266846 
	C1601.886597,1612.277710 1596.355225,1621.861328 1588.527954,1628.604736 
	C1589.228394,1632.147461 1589.346558,1635.239624 1590.465576,1637.912720 
	C1593.247314,1644.557617 1595.372437,1651.941284 1603.989868,1654.737549 
	C1613.699951,1662.002930 1624.392700,1660.522705 1634.682251,1659.204102 
	C1651.354614,1657.067993 1666.133789,1649.323608 1680.684082,1641.429443 
	C1684.841919,1639.173828 1688.359497,1635.738159 1692.392578,1632.675171 
	C1686.961304,1625.039307 1683.565674,1617.972412 1683.999023,1609.629028 
	C1684.477905,1600.408569 1688.649292,1595.475464 1697.639404,1593.034058 
	C1703.004028,1591.577148 1708.263184,1589.732178 1714.420410,1588.060303 
	C1716.596802,1587.963867 1718.048462,1588.187744 1719.227539,1587.721680 
	C1726.017212,1585.037109 1732.047485,1585.871460 1737.894165,1590.460205 
	C1743.013916,1594.478638 1750.609253,1594.838013 1754.203613,1601.251709 
	C1754.689087,1602.117798 1755.528320,1602.953735 1755.604492,1603.854248 
	C1756.213257,1611.044189 1758.058716,1618.486938 1756.858032,1625.388062 
	C1755.113281,1635.416016 1751.855103,1645.353638 1747.935303,1654.786621 
	C1742.999634,1666.664429 1737.590454,1678.473022 1727.669678,1687.440796 
	C1715.872070,1698.105591 1701.903564,1704.824707 1687.309448,1710.562988 
	C1683.353394,1712.118408 1679.596069,1714.179199 1674.938354,1716.008301 
	C1662.751343,1718.134155 1651.340942,1720.099487 1640.002441,1722.417114 
	C1611.707520,1728.200806 1587.474121,1720.735596 1567.232300,1700.293457 
	C1555.312500,1688.255859 1547.729614,1673.357666 1541.959106,1657.809570 
	C1538.564087,1648.661621 1537.243164,1638.542480 1536.351440,1628.736328 
	C1535.733032,1621.936157 1537.436401,1614.924683 1538.649536,1607.578979 
	C1539.962524,1605.675537 1540.925293,1604.269165 1541.464478,1602.715698 
	C1547.576294,1585.107056 1559.447754,1571.798950 1573.511230,1560.270386 
	C1591.680298,1545.375854 1612.295044,1534.669312 1634.782837,1525.924683 
	C1653.845459,1521.562988 1672.034424,1516.787354 1690.431763,1513.032593 
	C1699.732788,1511.134399 1709.396851,1510.668701 1718.923462,1510.344482 
	C1725.123779,1510.133423 1731.372314,1511.342773 1737.599243,1511.915771 
z"/>
<path fill="#C8DEC5" opacity="1.000000" stroke="none" 
	d="
M1794.193481,1349.346680 
	C1759.777222,1349.353638 1725.629761,1348.683228 1690.490967,1347.957397 
	C1690.864014,1342.809448 1691.963867,1337.628418 1693.633911,1332.638062 
	C1707.349731,1291.650391 1721.969238,1250.966919 1740.060791,1211.698975 
	C1753.830200,1181.812378 1768.273193,1152.186646 1783.703003,1123.127930 
	C1800.064819,1092.314209 1817.630615,1062.122681 1835.257080,1032.002441 
	C1851.367188,1004.473572 1868.068726,977.283997 1884.869995,950.168213 
	C1898.696899,927.852661 1913.028442,905.849243 1927.203247,883.750366 
	C1928.986938,880.969360 1931.079346,878.367004 1933.206421,875.830811 
	C1935.738770,872.811584 1938.989868,870.923218 1942.877930,872.786743 
	C1947.128174,874.823792 1946.293823,879.084229 1945.667969,882.525696 
	C1944.721191,887.730957 1943.073364,892.819885 1941.556763,897.908630 
	C1931.789307,930.681091 1922.024292,963.454468 1912.166748,996.199951 
	C1899.244873,1039.124756 1886.822876,1082.212036 1873.109863,1124.883545 
	C1858.268311,1171.066650 1842.522827,1216.968628 1826.526489,1262.767944 
	C1816.450806,1291.615601 1805.190796,1320.049683 1794.193481,1349.346680 
z"/>
<path fill="#C8DEC5" opacity="1.000000" stroke="none" 
	d="
M1650.414185,1462.037598 
	C1668.909424,1462.037964 1687.443726,1461.303711 1705.887207,1462.280884 
	C1719.570190,1463.005859 1733.135498,1465.952881 1747.601807,1468.057617 
	C1748.858276,1479.532959 1742.119263,1488.988281 1740.183960,1499.710083 
	C1739.540771,1503.273804 1738.556152,1506.776001 1737.663574,1511.111084 
	C1731.372314,1511.342773 1725.123779,1510.133423 1718.923462,1510.344482 
	C1709.396851,1510.668701 1699.732788,1511.134399 1690.431763,1513.032593 
	C1672.034424,1516.787354 1653.845459,1521.562988 1634.818115,1525.138672 
	C1636.834717,1514.143677 1639.669434,1503.943848 1642.354370,1493.704834 
	C1645.117065,1483.168945 1647.733643,1472.594971 1650.414185,1462.037598 
z"/>
<path fill="#FFFEFE" opacity="1.000000" stroke="none" 
	d="
M1649.502441,1462.011597 
	C1647.733643,1472.594971 1645.117065,1483.168945 1642.354370,1493.704834 
	C1639.669434,1503.943848 1636.834717,1514.143677 1634.030518,1525.146729 
	C1612.295044,1534.669312 1591.680298,1545.375854 1573.511230,1560.270386 
	C1559.447754,1571.798950 1547.576294,1585.107056 1541.464478,1602.715698 
	C1540.925293,1604.269165 1539.962524,1605.675537 1538.335205,1606.968018 
	C1529.198853,1596.444458 1521.638428,1585.408936 1512.450684,1575.954834 
	C1503.030884,1566.261963 1490.963745,1563.079712 1477.669434,1568.358887 
	C1470.348633,1571.265991 1468.473267,1576.210449 1471.763794,1583.484619 
	C1473.467896,1587.252075 1475.854736,1589.918091 1479.794434,1591.817017 
	C1483.138062,1593.428589 1486.702393,1596.102051 1488.434326,1599.257812 
	C1494.014893,1609.426514 1499.044312,1619.921387 1503.833008,1630.495850 
	C1516.711426,1658.934082 1528.492798,1687.906860 1542.371948,1715.841553 
	C1552.969727,1737.171875 1564.178223,1758.481079 1580.853149,1776.116821 
	C1581.669434,1776.980225 1581.731079,1778.557251 1582.144287,1779.801880 
	C1548.119385,1779.622559 1514.916748,1774.281372 1482.343262,1764.468262 
	C1467.642700,1760.039307 1453.355225,1754.975830 1440.537109,1746.272583 
	C1423.423218,1734.652832 1409.630737,1719.962524 1400.832397,1701.262817 
	C1392.453613,1683.454712 1388.836914,1664.527710 1394.365967,1645.122559 
	C1396.520752,1637.560303 1400.104736,1630.068848 1404.532349,1623.562378 
	C1413.098145,1610.975098 1422.474243,1598.908813 1432.002808,1587.017822 
	C1438.005859,1579.526367 1444.645386,1572.495850 1451.431641,1565.689575 
	C1476.885742,1540.161011 1505.510620,1518.766357 1536.626343,1500.585815 
	C1564.354858,1484.384399 1593.452026,1471.733643 1625.066406,1465.443115 
	C1632.829834,1463.898438 1640.745239,1463.117554 1649.502441,1462.011597 
z"/>
<path fill="#C8DEC5" opacity="1.000000" stroke="none" 
	d="
M1583.059570,1779.847900 
	C1581.731079,1778.557251 1581.669434,1776.980225 1580.853149,1776.116821 
	C1564.178223,1758.481079 1552.969727,1737.171875 1542.371948,1715.841553 
	C1528.492798,1687.906860 1516.711426,1658.934082 1503.833008,1630.495850 
	C1499.044312,1619.921387 1494.014893,1609.426514 1488.434326,1599.257812 
	C1486.702393,1596.102051 1483.138062,1593.428589 1479.794434,1591.817017 
	C1475.854736,1589.918091 1473.467896,1587.252075 1471.763794,1583.484619 
	C1468.473267,1576.210449 1470.348633,1571.265991 1477.669434,1568.358887 
	C1490.963745,1563.079712 1503.030884,1566.261963 1512.450684,1575.954834 
	C1521.638428,1585.408936 1529.198853,1596.444458 1537.788086,1607.396729 
	C1537.436401,1614.924683 1535.733032,1621.936157 1536.351440,1628.736328 
	C1537.243164,1638.542480 1538.564087,1648.661621 1541.959106,1657.809570 
	C1547.729614,1673.357666 1555.312500,1688.255859 1567.232300,1700.293457 
	C1587.474121,1720.735596 1611.707520,1728.200806 1640.002441,1722.417114 
	C1651.340942,1720.099487 1662.751343,1718.134155 1674.902344,1716.741943 
	C1669.126953,1733.622681 1662.578369,1749.770264 1656.029785,1765.917969 
	C1647.467041,1769.233032 1639.142212,1773.566772 1630.288086,1775.636230 
	C1615.144287,1779.175781 1599.638184,1780.941895 1583.059570,1779.847900 
z"/>
<path fill="#FFFDFD" opacity="1.000000" stroke="none" 
	d="
M1656.756836,1765.849609 
	C1662.578369,1749.770264 1669.126953,1733.622681 1675.711670,1716.741699 
	C1679.596069,1714.179199 1683.353394,1712.118408 1687.309448,1710.562988 
	C1701.903564,1704.824707 1715.872070,1698.105591 1727.669678,1687.440796 
	C1737.590454,1678.473022 1742.999634,1666.664429 1747.935303,1654.786621 
	C1751.855103,1645.353638 1755.113281,1635.416016 1756.858032,1625.388062 
	C1758.058716,1618.486938 1756.213257,1611.044189 1755.604492,1603.854248 
	C1755.528320,1602.953735 1754.689087,1602.117798 1754.203613,1601.251709 
	C1750.609253,1594.838013 1743.013916,1594.478638 1737.894165,1590.460205 
	C1732.047485,1585.871460 1726.017212,1585.037109 1719.227539,1587.721680 
	C1718.048462,1588.187744 1716.596802,1587.963867 1714.506104,1587.233398 
	C1713.885254,1583.674194 1714.029419,1580.940186 1714.173462,1578.206177 
	C1732.131470,1579.878784 1749.309204,1583.975464 1765.015137,1593.389893 
	C1776.357300,1600.188843 1781.312378,1610.221924 1781.894287,1623.029663 
	C1782.997314,1647.311401 1774.732300,1668.547607 1760.938965,1687.981079 
	C1734.732178,1724.904419 1698.935059,1749.110596 1656.756836,1765.849609 
z"/>
<path fill="#C8DEC5" opacity="1.000000" stroke="none" 
	d="
M1713.226318,1578.146851 
	C1714.029419,1580.940186 1713.885254,1583.674194 1713.655396,1587.234985 
	C1708.263184,1589.732178 1703.004028,1591.577148 1697.639404,1593.034058 
	C1688.649292,1595.475464 1684.477905,1600.408569 1683.999023,1609.629028 
	C1683.565674,1617.972412 1686.961304,1625.039307 1692.392578,1632.675171 
	C1688.359497,1635.738159 1684.841919,1639.173828 1680.684082,1641.429443 
	C1666.133789,1649.323608 1651.354614,1657.067993 1634.682251,1659.204102 
	C1624.392700,1660.522705 1613.699951,1662.002930 1604.081543,1653.937012 
	C1607.223511,1637.677856 1610.481445,1622.958008 1613.739380,1608.238159 
	C1620.341797,1603.949951 1626.563721,1598.858521 1633.615479,1595.518677 
	C1658.447510,1583.757690 1684.323364,1576.054077 1713.226318,1578.146851 
z"/>
<path fill="#FFFDFD" opacity="1.000000" stroke="none" 
	d="
M1613.065918,1608.266846 
	C1610.481445,1622.958008 1607.223511,1637.677856 1603.873779,1653.198242 
	C1595.372437,1651.941284 1593.247314,1644.557617 1590.465576,1637.912720 
	C1589.346558,1635.239624 1589.228394,1632.147461 1588.527954,1628.604736 
	C1596.355225,1621.861328 1601.886597,1612.277710 1613.065918,1608.266846 
z"/>
</svg>