<svg version="1.1" id="Layer_1" xmlns="http://www.w3.org/2000/svg" xmlns:xlink="http://www.w3.org/1999/xlink" x="0px" y="0px"
	 width="100%" viewBox="0 0 500 500" enable-background="new 0 0 500 500" xml:space="preserve">
<path fill="#FFFEFE" opacity="1.000000" stroke="none" 
	d="
M453.000000,501.000000 
	C302.000031,501.000000 151.500076,501.000000 1.000081,501.000000 
	C1.000054,334.333405 1.000054,167.666824 1.000027,1.000170 
	C167.666550,1.000113 334.333099,1.000113 500.999756,1.000057 
	C500.999817,167.666519 500.999817,334.333038 500.999908,500.999756 
	C485.166656,501.000000 469.333344,501.000000 453.000000,501.000000 
M297.430939,234.030960 
	C296.970428,234.359848 296.509888,234.688751 295.421814,235.307526 
	C288.740143,241.821136 289.253174,246.226959 297.160187,250.520035 
	C297.843964,250.891281 298.397766,251.501984 298.252106,252.106781 
	C296.309113,253.507324 294.229034,254.757950 292.473419,256.363373 
	C291.379822,257.363373 290.776611,258.899689 289.653229,259.462219 
	C289.105591,255.721603 288.085999,251.977310 288.115082,248.241180 
	C288.165283,241.785339 285.998993,236.689957 280.181580,233.842911 
	C273.903748,230.770554 267.478485,230.836060 261.978180,235.626877 
	C260.321716,237.069656 258.631317,239.862152 258.904327,241.755478 
	C259.199280,243.801132 261.774353,245.518005 263.153687,247.141525 
	C267.796448,242.131500 271.709625,237.908768 275.622833,233.686050 
	C275.999481,233.995972 276.376160,234.305893 276.752808,234.615814 
	C276.752808,238.739563 276.752808,242.863297 276.143768,246.995255 
	C275.735199,247.007538 275.326630,247.019836 274.043793,247.086823 
	C270.924225,247.416443 267.671753,247.299698 264.716064,248.179718 
	C260.220886,249.518097 258.131927,253.244919 258.230530,257.740326 
	C258.317200,261.691467 260.916473,264.253479 264.755280,264.825104 
	C269.335938,265.507141 272.332214,263.230347 273.828613,258.839905 
	C274.438721,257.049896 275.348206,255.361984 276.121490,253.627609 
	C276.995544,255.340897 276.963623,256.779327 277.001099,258.215942 
	C277.157166,264.198242 280.427917,266.179504 285.862427,263.494934 
	C287.315216,262.777313 288.589905,261.699158 290.724945,260.807953 
	C292.042358,261.433685 293.400513,261.986633 294.670349,262.697357 
	C301.175201,266.337982 308.946655,265.663422 314.571747,260.989410 
	C315.018402,260.649933 315.465027,260.310425 316.521332,259.665192 
	C317.686340,257.768066 318.851349,255.870956 320.072479,254.809235 
	C319.728149,258.937714 320.662689,262.477325 324.837738,264.271423 
	C331.931152,267.319611 334.064728,261.216766 337.152191,256.673615 
	C340.563507,266.226532 343.824890,267.020660 351.145569,261.283478 
	C350.726440,256.666412 350.116028,252.465530 350.016479,248.252594 
	C349.868195,241.975128 347.886993,236.955856 341.965454,233.987335 
	C335.785828,230.889420 329.700073,230.900574 324.217926,235.163589 
	C322.399353,236.577728 320.190826,239.873032 320.734192,241.380737 
	C321.539520,243.615265 324.638672,245.023071 327.006561,247.020981 
	C327.006561,247.020981 327.232544,247.277451 326.735504,247.730576 
	C324.486145,249.825012 322.236755,251.919449 319.875458,253.245178 
	C320.166718,248.089478 316.268494,245.749176 313.738770,242.896240 
	C317.489319,241.224380 319.158997,237.769806 317.398895,235.323395 
	C314.760468,231.656158 301.939423,230.798004 297.430939,234.030960 
M110.731018,264.095703 
	C113.119987,263.559967 115.683350,263.406097 117.862579,262.411041 
	C122.792618,260.159912 124.959908,255.776382 123.671165,251.646881 
	C122.392090,247.548355 119.064117,246.105713 113.109352,246.984177 
	C108.067307,247.727997 103.015076,248.402725 97.736656,248.422546 
	C97.069160,246.611084 96.401665,244.799606 96.155449,242.339584 
	C100.086334,237.929504 104.183426,240.109329 108.311745,241.992752 
	C120.677254,247.634171 123.200317,246.409592 125.776512,233.561707 
	C125.830315,233.293411 125.587395,232.965607 125.775322,233.505234 
	C121.088013,233.132462 116.765099,233.012573 112.513191,232.399918 
	C105.516891,231.391800 99.177330,231.611771 95.482574,238.998230 
	C95.221283,239.520599 94.474144,239.799942 93.927856,239.360794 
	C92.778137,233.904495 90.682846,228.443481 94.512726,222.999084 
	C94.674896,222.955627 94.837067,222.912170 95.790794,222.790222 
	C104.546829,220.114578 110.853256,225.239105 117.782158,230.234238 
	C119.304733,228.450668 121.329491,227.010941 121.908806,225.126801 
	C122.442230,223.391846 122.098434,220.030258 120.973442,219.367691 
	C114.764412,215.710754 100.665802,214.246841 94.507370,222.147263 
	C94.335358,222.428085 94.163345,222.708908 93.300064,223.028625 
	C90.730301,225.772903 86.962479,228.085724 85.792648,231.334137 
	C79.891357,247.720963 88.045525,265.307159 108.517097,264.971802 
	C108.973770,264.708618 109.430443,264.445435 110.731018,264.095703 
M405.467590,254.003021 
	C405.467590,254.003021 405.873993,254.006363 405.952881,254.874252 
	C405.983398,256.703583 405.335297,259.004974 406.202759,260.252106 
	C407.519135,262.144531 410.162201,264.747711 411.747650,264.446747 
	C414.295349,263.963074 417.805511,261.744843 418.432831,259.551392 
	C419.364105,256.295227 418.090576,252.423904 417.832794,248.808929 
	C417.386139,242.545090 415.617432,236.936081 409.541077,233.946503 
	C403.843689,231.143402 397.833313,230.634995 392.550232,234.594513 
	C390.466034,236.156570 388.439301,239.244675 388.367065,241.696259 
	C388.263336,245.215988 391.443237,246.871017 394.686157,247.587463 
	C388.819855,249.452499 387.868988,254.874817 385.446075,258.868042 
	C385.230591,257.066437 384.937500,255.270126 384.814453,253.462250 
	C384.476837,248.501434 384.779541,243.404633 383.678223,238.626892 
	C383.120636,236.208084 380.402924,233.263489 378.065399,232.571518 
	C375.805084,231.902435 372.705566,233.639221 370.124237,234.687515 
	C369.039886,235.127884 368.340179,236.515396 367.440399,237.499908 
	C363.420715,230.640167 360.143982,230.303406 354.188416,235.219986 
	C354.188416,245.090271 354.188416,254.249832 354.188416,263.707703 
	C358.727203,263.707703 362.956848,263.707703 366.827057,263.707703 
	C366.827057,257.297089 366.616516,251.146332 366.966858,245.027679 
	C367.061005,243.383560 368.862061,241.837173 369.879578,240.245926 
	C370.932404,241.884750 372.734406,243.454300 372.893524,245.175735 
	C373.320953,249.798645 372.910522,254.491684 373.088684,259.147064 
	C373.259094,263.598389 376.357483,265.679474 380.513855,264.101929 
	C382.458649,263.363800 384.149567,261.956726 386.724670,260.847870 
	C388.199341,261.754547 389.734192,262.577484 391.136414,263.584991 
	C394.234009,265.810638 399.972717,265.172974 401.614105,262.106110 
	C402.993591,259.528564 403.929077,256.713409 405.467590,254.003021 
M207.640732,232.506210 
	C206.753052,232.994736 205.865387,233.483261 204.235123,233.956039 
	C193.449814,237.648621 189.012497,247.524567 193.540176,257.759308 
	C196.421631,264.272766 203.879410,266.650787 210.798996,262.999084 
	C212.667694,261.960999 214.725983,261.159332 216.369934,259.841003 
	C221.521866,255.709396 223.395187,247.896347 221.082214,241.170670 
	C218.991791,235.092102 215.611588,232.952286 207.640732,232.506210 
M248.518356,256.602386 
	C251.613846,248.653809 254.709320,240.705231 257.901611,232.508026 
	C252.323624,232.508026 247.501877,232.508026 242.405457,232.508026 
	C246.899063,239.020264 248.546204,244.586517 247.946548,251.982071 
	C247.832748,253.385437 246.673172,254.704010 245.897583,255.316406 
	C243.959854,250.563660 241.981216,245.827087 240.092667,241.054886 
	C235.741165,230.059067 234.344986,229.665115 224.916946,236.937042 
	C224.692123,237.110458 224.620438,237.482407 224.845230,237.043640 
	C226.830032,240.728439 228.750427,243.909927 230.300308,247.262695 
	C232.522156,252.069046 234.343979,257.062469 236.628937,261.836090 
	C237.221817,263.074707 239.314468,264.846497 240.013550,264.572876 
	C243.577713,263.177948 247.944885,262.236542 248.518356,256.602386 
M181.737167,233.531586 
	C171.784683,230.285400 160.186172,237.843262 159.124634,248.266449 
	C158.115784,258.172424 164.983612,266.544006 173.535263,264.657440 
	C177.920944,263.689880 182.216064,260.574402 185.654785,257.443939 
	C191.347137,252.261932 190.327988,237.080276 181.737167,233.531586 
M128.550919,234.857559 
	C128.763916,237.394867 129.130356,239.930344 129.160599,242.469833 
	C129.244919,249.552185 129.189911,256.636200 129.188034,263.715759 
	C133.289047,263.715759 137.390045,263.715759 140.961227,263.715759 
	C140.961227,259.641266 140.915161,255.869675 140.971558,252.099609 
	C141.066956,245.722214 144.432907,242.222397 150.796127,242.009644 
	C152.876846,241.940079 154.971146,242.276535 156.985077,242.421951 
	C158.465820,237.261826 157.224442,233.542831 153.692627,231.990860 
	C149.833572,230.295074 146.061356,233.048065 141.143524,241.289368 
	C141.068451,240.442169 140.983093,239.828903 140.964340,239.213608 
	C140.748291,232.124893 138.585587,230.685349 131.915436,233.237122 
	C130.984985,233.593094 130.107437,234.087357 128.550919,234.857559 
z"/>
<path fill="#F9A9C2" opacity="1.000000" stroke="none" 
	d="
M385.955505,260.852814 
	C384.149567,261.956726 382.458649,263.363800 380.513855,264.101929 
	C376.357483,265.679474 373.259094,263.598389 373.088684,259.147064 
	C372.910522,254.491684 373.320953,249.798645 372.893524,245.175735 
	C372.734406,243.454300 370.932404,241.884750 369.879578,240.245911 
	C368.862061,241.837173 367.061005,243.383560 366.966858,245.027679 
	C366.616516,251.146332 366.827057,257.297089 366.827057,263.707703 
	C362.956848,263.707703 358.727203,263.707703 354.188416,263.707703 
	C354.188416,254.249832 354.188416,245.090271 354.188416,235.219986 
	C360.143982,230.303406 363.420715,230.640167 367.440399,237.499908 
	C368.340179,236.515396 369.039886,235.127884 370.124237,234.687515 
	C372.705566,233.639221 375.805084,231.902435 378.065399,232.571518 
	C380.402924,233.263489 383.120636,236.208084 383.678223,238.626892 
	C384.779541,243.404633 384.476837,248.501434 384.814453,253.462250 
	C384.937500,255.270126 385.230591,257.066437 385.714783,259.442749 
	C385.985565,260.296265 385.976257,260.574707 385.955505,260.852814 
z"/>
<path fill="#F9AAC2" opacity="1.000000" stroke="none" 
	d="
M319.987396,254.013870 
	C322.236755,251.919449 324.486145,249.825012 327.420807,247.460022 
	C331.540436,247.189453 334.974762,247.189453 338.584564,247.189453 
	C338.584564,242.421280 338.584564,238.422363 338.584564,234.423447 
	C338.070526,234.102112 337.556519,233.780762 337.042480,233.459427 
	C333.615417,237.900558 330.188354,242.341675 326.761322,246.782806 
	C324.638672,245.023071 321.539520,243.615265 320.734192,241.380737 
	C320.190826,239.873032 322.399353,236.577728 324.217926,235.163589 
	C329.700073,230.900574 335.785828,230.889420 341.965454,233.987335 
	C347.886993,236.955856 349.868195,241.975128 350.016479,248.252594 
	C350.116028,252.465530 350.726440,256.666412 351.145569,261.283478 
	C343.824890,267.020660 340.563507,266.226532 337.152191,256.673615 
	C334.064728,261.216766 331.931152,267.319611 324.837738,264.271423 
	C320.662689,262.477325 319.728149,258.937714 320.037842,254.402557 
	C320.003235,253.995895 319.987396,254.013870 319.987396,254.013870 
M331.841064,251.348969 
	C332.045105,252.517593 332.249146,253.686234 332.453217,254.854843 
	C334.407379,253.379074 336.361542,251.903290 338.315704,250.427521 
	C337.949768,249.855133 337.583862,249.282761 337.217957,248.710388 
	C335.571381,249.384064 333.924835,250.057755 331.841064,251.348969 
z"/>
<path fill="#F9ABC3" opacity="1.000000" stroke="none" 
	d="
M289.946350,260.786499 
	C288.589905,261.699158 287.315216,262.777313 285.862427,263.494934 
	C280.427917,266.179504 277.157166,264.198242 277.001099,258.215942 
	C276.963623,256.779327 276.995544,255.340897 276.121490,253.627609 
	C275.348206,255.361984 274.438721,257.049896 273.828613,258.839905 
	C272.332214,263.230347 269.335938,265.507141 264.755280,264.825104 
	C260.916473,264.253479 258.317200,261.691467 258.230530,257.740326 
	C258.131927,253.244919 260.220886,249.518097 264.716064,248.179718 
	C267.671753,247.299698 270.924225,247.416443 274.471497,247.405426 
	C273.600067,248.638290 272.066071,249.354843 271.076813,250.529984 
	C270.299957,251.452850 270.196259,252.942398 269.793518,254.180206 
	C271.108521,253.933777 273.033813,254.138702 273.616547,253.350754 
	C275.000275,251.479721 275.748016,249.138321 276.752808,246.987030 
	C276.752808,242.863297 276.752808,238.739563 276.752808,234.615814 
	C276.376160,234.305893 275.999481,233.995972 275.622833,233.686050 
	C271.709625,237.908768 267.796448,242.131500 263.153687,247.141525 
	C261.774353,245.518005 259.199280,243.801132 258.904327,241.755478 
	C258.631317,239.862152 260.321716,237.069656 261.978180,235.626877 
	C267.478485,230.836060 273.903748,230.770554 280.181580,233.842911 
	C285.998993,236.689957 288.165283,241.785339 288.115082,248.241180 
	C288.085999,251.977310 289.105591,255.721603 289.811218,259.975952 
	C289.969177,260.489716 289.946350,260.786499 289.946350,260.786499 
z"/>
<path fill="#F9AAC2" opacity="1.000000" stroke="none" 
	d="
M182.079636,233.698029 
	C190.327988,237.080276 191.347137,252.261932 185.654785,257.443939 
	C182.216064,260.574402 177.920944,263.689880 173.535263,264.657440 
	C164.983612,266.544006 158.115784,258.172424 159.124634,248.266449 
	C160.186172,237.843262 171.784683,230.285400 182.079636,233.698029 
M173.011093,234.549789 
	C168.979721,243.138168 171.216003,252.081696 171.676147,260.898010 
	C171.714783,261.638611 173.630722,262.922638 174.516495,262.801239 
	C175.443085,262.674255 176.865723,261.172272 176.889740,260.240845 
	C177.089523,252.494843 177.131805,244.738022 176.878769,236.995667 
	C176.847000,236.023453 174.823044,235.116364 173.011093,234.549789 
z"/>
<path fill="#F9A9C2" opacity="1.000000" stroke="none" 
	d="
M128.878159,234.687561 
	C130.107437,234.087357 130.984985,233.593094 131.915436,233.237122 
	C138.585587,230.685349 140.748291,232.124893 140.964340,239.213608 
	C140.983093,239.828903 141.068451,240.442169 141.143524,241.289368 
	C146.061356,233.048065 149.833572,230.295074 153.692627,231.990860 
	C157.224442,233.542831 158.465820,237.261826 156.985077,242.421951 
	C154.971146,242.276535 152.876846,241.940079 150.796127,242.009644 
	C144.432907,242.222397 141.066956,245.722214 140.971558,252.099609 
	C140.915161,255.869675 140.961227,259.641266 140.961227,263.715759 
	C137.390045,263.715759 133.289047,263.715759 129.188965,263.717651 
	C129.189911,256.636200 129.244919,249.552185 129.160599,242.469833 
	C129.130356,239.930344 128.763916,237.394867 128.878159,234.687561 
z"/>
<path fill="#F9A9C2" opacity="1.000000" stroke="none" 
	d="
M395.011353,246.988739 
	C391.443237,246.871017 388.263336,245.215988 388.367065,241.696259 
	C388.439301,239.244675 390.466034,236.156570 392.550232,234.594513 
	C397.833313,230.634995 403.843689,231.143402 409.541077,233.946503 
	C415.617432,236.936081 417.386139,242.545090 417.832794,248.808929 
	C418.090576,252.423904 419.364105,256.295227 418.432831,259.551392 
	C417.805511,261.744843 414.295349,263.963074 411.747650,264.446747 
	C410.162201,264.747711 407.519135,262.144531 406.202759,260.252106 
	C405.335297,259.004974 405.983398,256.703583 405.939606,254.025208 
	C405.947357,251.793137 405.968384,250.410095 405.996399,248.715073 
	C406.016052,247.987213 406.028778,247.571350 406.056519,246.677841 
	C406.071564,242.221115 406.071564,238.242020 406.071564,234.262924 
	C405.541748,234.153809 405.011963,234.044693 404.482147,233.935577 
	C400.992950,238.036896 395.731598,240.743149 394.992676,247.003372 
	C395.001740,247.004349 395.011353,246.988739 395.011353,246.988739 
z"/>
<path fill="#F9AAC2" opacity="1.000000" stroke="none" 
	d="
M95.734177,242.988144 
	C96.401665,244.799606 97.069160,246.611084 97.856529,248.956940 
	C97.976402,249.491333 97.965523,249.876617 98.005104,250.248032 
	C101.347015,255.407791 104.649353,260.196136 107.951691,264.984497 
	C88.045525,265.307159 79.891357,247.720963 85.792648,231.334137 
	C86.962479,228.085724 90.730301,225.772903 93.650093,223.014313 
	C94.000122,223.000000 94.009415,223.009521 94.009415,223.009521 
	C90.682846,228.443481 92.778137,233.904495 93.961212,240.093018 
	C94.574432,241.546219 95.154297,242.267181 95.734177,242.988144 
z"/>
<path fill="#F9A9C2" opacity="1.000000" stroke="none" 
	d="
M247.921051,256.986816 
	C247.944885,262.236542 243.577713,263.177948 240.013550,264.572876 
	C239.314468,264.846497 237.221817,263.074707 236.628937,261.836090 
	C234.343979,257.062469 232.522156,252.069046 230.300308,247.262695 
	C228.750427,243.909927 226.830032,240.728439 224.845230,237.043640 
	C224.620438,237.482407 224.692123,237.110458 224.916946,236.937042 
	C234.344986,229.665115 235.741165,230.059067 240.092667,241.054886 
	C241.981216,245.827087 243.959854,250.563660 246.113617,255.917480 
	C246.860123,256.674652 247.390594,256.830719 247.921051,256.986816 
z"/>
<path fill="#F9AAC2" opacity="1.000000" stroke="none" 
	d="
M312.986816,242.994553 
	C316.268494,245.749176 320.166718,248.089478 319.931427,253.629517 
	C319.987396,254.013870 320.003235,253.995895 320.009827,253.984863 
	C318.851349,255.870956 317.686340,257.768066 315.938110,259.827057 
	C314.982208,259.990723 314.609497,259.992554 314.177307,259.615967 
	C312.976288,257.820526 312.107971,255.685806 310.639832,255.127029 
	C306.902191,253.704483 302.896423,252.986328 298.997864,251.993332 
	C298.997742,252.000412 299.011932,252.001434 299.011932,252.001434 
	C298.397766,251.501984 297.843964,250.891281 297.160187,250.520035 
	C289.253174,246.226959 288.740143,241.821136 295.995789,235.161957 
	C296.743439,235.018768 296.917145,235.021149 297.104309,235.385773 
	C298.318787,237.168045 299.255920,239.317856 300.772095,239.865982 
	C304.714325,241.291122 308.910858,242.012802 313.004425,243.007050 
	C313.002930,242.998917 312.986816,242.994553 312.986816,242.994553 
z"/>
<path fill="#F9ADC4" opacity="1.000000" stroke="none" 
	d="
M210.087967,263.035858 
	C203.879410,266.650787 196.421631,264.272766 193.540176,257.759308 
	C189.012497,247.524567 193.449814,237.648621 204.616302,233.976257 
	C204.997467,233.996460 205.016891,234.017715 204.970978,234.432999 
	C204.667511,243.232376 204.243591,251.618958 204.368378,259.997375 
	C204.383530,261.015259 207.353424,261.989166 209.237579,262.993408 
	C209.710144,263.014160 209.899048,263.025024 210.087967,263.035858 
z"/>
<path fill="#F9ABC3" opacity="1.000000" stroke="none" 
	d="
M210.443481,263.017456 
	C209.899048,263.025024 209.710144,263.014160 209.387115,262.615906 
	C209.796432,257.353027 210.914490,252.454224 210.717209,247.608948 
	C210.530243,243.017212 208.964462,238.481628 208.007263,233.666656 
	C208.013535,233.242249 208.017624,233.072510 208.021698,232.902771 
	C215.611588,232.952286 218.991791,235.092102 221.082214,241.170670 
	C223.395187,247.896347 221.521866,255.709396 216.369934,259.841003 
	C214.725983,261.159332 212.667694,261.960999 210.443481,263.017456 
z"/>
<path fill="#F9ACC3" opacity="1.000000" stroke="none" 
	d="
M95.944809,242.663864 
	C95.154297,242.267181 94.574432,241.546219 93.973740,240.508759 
	C94.474144,239.799942 95.221283,239.520599 95.482574,238.998230 
	C99.177330,231.611771 105.516891,231.391800 112.513191,232.399918 
	C116.765099,233.012573 121.088013,233.132462 125.775322,233.505234 
	C125.587395,232.965607 125.830315,233.293411 125.776512,233.561707 
	C123.200317,246.409592 120.677254,247.634171 108.311745,241.992752 
	C104.183426,240.109329 100.086334,237.929504 95.944809,242.663864 
z"/>
<path fill="#F9ADC5" opacity="1.000000" stroke="none" 
	d="
M406.041504,247.155487 
	C406.028778,247.571350 406.016052,247.987213 405.608124,248.678192 
	C403.644440,249.392578 401.854584,249.507019 400.579071,250.376236 
	C399.597076,251.045364 399.261749,252.663513 398.638885,253.859650 
	C399.929504,253.799576 401.220673,253.686066 402.510590,253.698349 
	C403.361664,253.706451 404.211029,253.895447 405.061157,254.003448 
	C403.929077,256.713409 402.993591,259.528564 401.614105,262.106110 
	C399.972717,265.172974 394.234009,265.810638 391.136414,263.584991 
	C389.734192,262.577484 388.199341,261.754547 386.340088,260.850342 
	C385.976257,260.574707 385.985565,260.296265 385.981567,259.817719 
	C387.868988,254.874817 388.819855,249.452499 394.848755,247.288101 
	C395.011353,246.988739 395.001740,247.004349 395.450317,247.052368 
	C399.279755,247.118759 402.660614,247.137131 406.041504,247.155487 
z"/>
<path fill="#F9AAC2" opacity="1.000000" stroke="none" 
	d="
M94.994453,221.984375 
	C100.665802,214.246841 114.764412,215.710754 120.973442,219.367691 
	C122.098434,220.030258 122.442230,223.391846 121.908806,225.126801 
	C121.329491,227.010941 119.304733,228.450668 117.782158,230.234238 
	C110.853256,225.239105 104.546829,220.114578 95.394463,222.609039 
	C94.998131,222.427856 94.994453,221.984375 94.994453,221.984375 
z"/>
<path fill="#F9ABC3" opacity="1.000000" stroke="none" 
	d="
M97.965523,249.876617 
	C97.965523,249.876617 97.976402,249.491333 97.971878,249.299683 
	C103.015076,248.402725 108.067307,247.727997 113.109352,246.984177 
	C119.064117,246.105713 122.392090,247.548355 123.671165,251.646881 
	C124.959908,255.776382 122.792618,260.159912 117.862579,262.411041 
	C115.683350,263.406097 113.119987,263.559967 110.475449,263.791687 
	C113.460220,260.726807 113.851791,257.116089 112.489532,253.505188 
	C111.139641,249.927094 107.747154,249.852188 104.454124,249.969940 
	C102.295128,250.047119 100.128647,249.914993 97.965523,249.876617 
z"/>
<path fill="#F9ADC5" opacity="1.000000" stroke="none" 
	d="
M248.219696,256.794617 
	C247.390594,256.830719 246.860123,256.674652 246.162903,256.290131 
	C246.673172,254.704010 247.832748,253.385437 247.946548,251.982071 
	C248.546204,244.586517 246.899063,239.020264 242.405457,232.508026 
	C247.501877,232.508026 252.323624,232.508026 257.901611,232.508026 
	C254.709320,240.705231 251.613846,248.653809 248.219696,256.794617 
z"/>
<path fill="#F9ADC4" opacity="1.000000" stroke="none" 
	d="
M290.335632,260.797241 
	C289.946350,260.786499 289.969177,260.489716 289.961243,260.342529 
	C290.776611,258.899689 291.379822,257.363373 292.473419,256.363373 
	C294.229034,254.757950 296.309113,253.507324 298.632019,252.054108 
	C299.011932,252.001434 298.997742,252.000412 298.965729,252.347992 
	C302.554901,258.023560 307.070068,261.731720 314.011414,261.011810 
	C314.000031,261.000092 313.976288,260.976410 313.976288,260.976410 
	C308.946655,265.663422 301.175201,266.337982 294.670349,262.697357 
	C293.400513,261.986633 292.042358,261.433685 290.335632,260.797241 
z"/>
<path fill="#FFFBFC" opacity="1.000000" stroke="none" 
	d="
M98.005104,250.248032 
	C100.128647,249.914993 102.295128,250.047119 104.454124,249.969940 
	C107.747154,249.852188 111.139641,249.927094 112.489532,253.505188 
	C113.851791,257.116089 113.460220,260.726807 110.053497,263.834961 
	C109.430443,264.445435 108.973770,264.708618 108.234390,264.978149 
	C104.649353,260.196136 101.347015,255.407791 98.005104,250.248032 
z"/>
<path fill="#F9ADC4" opacity="1.000000" stroke="none" 
	d="
M298.028931,234.026901 
	C301.939423,230.798004 314.760468,231.656158 317.398895,235.323395 
	C319.158997,237.769806 317.489319,241.224380 313.362793,242.945404 
	C312.986816,242.994553 313.002930,242.998917 313.020935,242.653076 
	C309.295776,237.221909 304.974518,233.181122 297.990723,233.986969 
	C298.002533,234.000900 298.028931,234.026901 298.028931,234.026901 
z"/>
<path fill="#FFFBFC" opacity="1.000000" stroke="none" 
	d="
M276.448303,246.991150 
	C275.748016,249.138321 275.000275,251.479721 273.616547,253.350754 
	C273.033813,254.138702 271.108521,253.933777 269.793518,254.180206 
	C270.196259,252.942398 270.299957,251.452850 271.076813,250.529984 
	C272.066071,249.354843 273.600067,248.638290 274.908630,247.378082 
	C275.326630,247.019836 275.735199,247.007538 276.448303,246.991150 
z"/>
<path fill="#FFFBFC" opacity="1.000000" stroke="none" 
	d="
M405.264374,254.003235 
	C404.211029,253.895447 403.361664,253.706451 402.510590,253.698349 
	C401.220673,253.686066 399.929504,253.799576 398.638885,253.859650 
	C399.261749,252.663513 399.597076,251.045364 400.579071,250.376236 
	C401.854584,249.507019 403.644440,249.392578 405.601196,248.990173 
	C405.968384,250.410095 405.947357,251.793137 405.900146,253.591278 
	C405.873993,254.006363 405.467590,254.003021 405.264374,254.003235 
z"/>
<path fill="#F9ADC4" opacity="1.000000" stroke="none" 
	d="
M207.831207,232.704498 
	C208.017624,233.072510 208.013535,233.242249 207.633682,233.688477 
	C206.510895,233.982559 205.763901,234.000137 205.016891,234.017715 
	C205.016891,234.017715 204.997467,233.996460 204.987579,233.984131 
	C205.865387,233.483261 206.753052,232.994736 207.831207,232.704498 
z"/>
<path fill="#F9ADC4" opacity="1.000000" stroke="none" 
	d="
M297.090820,235.023514 
	C296.917145,235.021149 296.743439,235.018768 296.309570,235.017029 
	C296.509888,234.688751 296.970428,234.359848 297.729919,234.028931 
	C298.028931,234.026901 298.002533,234.000900 297.907349,234.213013 
	C297.660767,234.731964 297.420319,234.931427 297.090820,235.023514 
z"/>
<path fill="#F9ADC4" opacity="1.000000" stroke="none" 
	d="
M314.236786,259.994354 
	C314.609497,259.992554 314.982208,259.990723 315.633301,259.979919 
	C315.465027,260.310425 315.018402,260.649933 314.274017,260.982910 
	C313.976288,260.976410 314.000031,261.000092 314.036682,260.748566 
	C314.127808,260.329468 314.182312,260.161926 314.236786,259.994354 
z"/>
<path fill="#F9AAC2" opacity="1.000000" stroke="none" 
	d="
M94.750916,222.065826 
	C94.994453,221.984375 94.998131,222.427856 94.998688,222.648285 
	C94.837067,222.912170 94.674896,222.955627 94.261070,223.004303 
	C94.009415,223.009521 94.000122,223.000000 93.995728,222.994873 
	C94.163345,222.708908 94.335358,222.428085 94.750916,222.065826 
z"/>
<path fill="#FFFEFE" opacity="1.000000" stroke="none" 
	d="
M326.883942,246.901886 
	C330.188354,242.341675 333.615417,237.900558 337.042480,233.459427 
	C337.556519,233.780762 338.070526,234.102112 338.584564,234.423447 
	C338.584564,238.422363 338.584564,242.421280 338.584564,247.189453 
	C334.974762,247.189453 331.540436,247.189453 327.669312,247.233459 
	C327.232544,247.277451 327.006561,247.020981 326.883942,246.901886 
z"/>
<path fill="#FFFBFC" opacity="1.000000" stroke="none" 
	d="
M332.059692,251.040192 
	C333.924835,250.057755 335.571381,249.384064 337.217957,248.710388 
	C337.583862,249.282761 337.949768,249.855133 338.315704,250.427521 
	C336.361542,251.903290 334.407379,253.379074 332.453217,254.854858 
	C332.249146,253.686234 332.045105,252.517593 332.059692,251.040192 
z"/>
<path fill="#FFFBFC" opacity="1.000000" stroke="none" 
	d="
M173.366608,234.364441 
	C174.823044,235.116364 176.847000,236.023453 176.878769,236.995667 
	C177.131805,244.738022 177.089523,252.494843 176.889740,260.240845 
	C176.865723,261.172272 175.443085,262.674255 174.516495,262.801239 
	C173.630722,262.922638 171.714783,261.638611 171.676147,260.898010 
	C171.216003,252.081696 168.979721,243.138168 173.366608,234.364441 
z"/>
<path fill="#FFFEFE" opacity="1.000000" stroke="none" 
	d="
M406.056519,246.677856 
	C402.660614,247.137131 399.279755,247.118759 395.441223,247.051392 
	C395.731598,240.743149 400.992950,238.036896 404.482147,233.935577 
	C405.011963,234.044693 405.541748,234.153809 406.071564,234.262924 
	C406.071564,238.242020 406.071564,242.221115 406.056519,246.677856 
z"/>
<path fill="#FFFEFE" opacity="1.000000" stroke="none" 
	d="
M297.104309,235.385773 
	C297.420319,234.931427 297.660767,234.731964 297.895508,234.199066 
	C304.974518,233.181122 309.295776,237.221909 313.022461,242.661209 
	C308.910858,242.012802 304.714325,241.291122 300.772095,239.865982 
	C299.255920,239.317856 298.318787,237.168045 297.104309,235.385773 
z"/>
<path fill="#FFFEFE" opacity="1.000000" stroke="none" 
	d="
M314.177307,259.615967 
	C314.182312,260.161926 314.127808,260.329468 314.048035,260.760284 
	C307.070068,261.731720 302.554901,258.023560 298.965851,252.340912 
	C302.896423,252.986328 306.902191,253.704483 310.639832,255.127029 
	C312.107971,255.685806 312.976288,257.820526 314.177307,259.615967 
z"/>
<path fill="#FFFBFC" opacity="1.000000" stroke="none" 
	d="
M204.970978,234.432999 
	C205.763901,234.000137 206.510895,233.982559 207.631485,233.943161 
	C208.964462,238.481628 210.530243,243.017212 210.717209,247.608948 
	C210.914490,252.454224 209.796432,257.353027 209.103455,262.605957 
	C207.353424,261.989166 204.383530,261.015259 204.368378,259.997375 
	C204.243591,251.618958 204.667511,243.232376 204.970978,234.432999 
z"/>
</svg>